<?xml version="1.0" encoding="UTF-8" standalone="no"?>
<!DOCTYPE svg PUBLIC "-//W3C//DTD SVG 1.1//EN" "http://www.w3.org/Graphics/SVG/1.1/DTD/svg11.dtd">
<svg width="100%" height="100%" viewBox="0 0 1024 1024" version="1.1" xmlns="http://www.w3.org/2000/svg" xmlns:xlink="http://www.w3.org/1999/xlink" xml:space="preserve" xmlns:serif="http://www.serif.com/" style="fill-rule:evenodd;clip-rule:evenodd;stroke-linejoin:round;stroke-miterlimit:2;">
    <g transform="matrix(2.32708,0,0,2.64771,-679.467,-751.501)">
        <g id="Folder">
            <path d="M318.625,408.176L318.625,546.176C318.625,571.84 339.461,592.676 365.125,592.676L658.875,592.676C684.539,592.676 705.375,571.84 705.375,546.176L705.375,453.176C705.375,427.512 684.539,406.676 658.875,406.676L628,406.676L553,361.676L365.125,361.676C339.461,361.676 318.625,382.512 318.625,408.176Z" style="fill:rgb(126,126,126);"/>
            <clipPath id="_clip1">
                <path d="M318.625,408.176L318.625,546.176C318.625,571.84 339.461,592.676 365.125,592.676L658.875,592.676C684.539,592.676 705.375,571.84 705.375,546.176L705.375,453.176C705.375,427.512 684.539,406.676 658.875,406.676L628,406.676L553,361.676L365.125,361.676C339.461,361.676 318.625,382.512 318.625,408.176Z"/>
            </clipPath>
            <g clip-path="url(#_clip1)">
                <g transform="matrix(1,0,0,0.873239,31.375,83.5774)">
                    <path d="M674,409.479C674,387.69 656.424,370 634.775,370L326.475,370C304.826,370 287.25,387.69 287.25,409.479L287.25,543.521C287.25,565.31 304.826,583 326.475,583L634.775,583C656.424,583 674,565.31 674,543.521L674,409.479Z" style="fill:rgb(154,154,154);"/>
                </g>
                <g transform="matrix(0.590553,0,0,0.590553,209.637,161.356)">
                    <path d="M438,730.366C593.957,733.926 796.799,644.437 839.447,489L839.447,655C835.552,695.844 811.548,724.073 767,730.366L438,730.366Z" style="fill:rgb(126,126,126);"/>
                </g>
            </g>
        </g>
    </g>
</svg>
