<?xml version="1.0" encoding="UTF-8" standalone="no"?><!DOCTYPE svg PUBLIC "-//W3C//DTD SVG 1.1//EN" "http://www.w3.org/Graphics/SVG/1.1/DTD/svg11.dtd"><svg width="100%" height="100%" viewBox="0 0 480 480" version="1.1" xmlns="http://www.w3.org/2000/svg" xmlns:xlink="http://www.w3.org/1999/xlink" xml:space="preserve" xmlns:serif="http://www.serif.com/" style="fill-rule:evenodd;clip-rule:evenodd;stroke-linejoin:round;stroke-miterlimit:2;"><g><path d="M175.153,225.15c-1.875,-2.152 -4.623,-3.34 -7.475,-3.229c-2.852,0.11 -5.5,1.506 -7.203,3.796c-6.131,8.247 -14.692,19.762 -18.799,25.286c-1.523,2.049 -2.15,4.628 -1.738,7.147c3.597,22.015 21.042,128.78 21.042,128.78c0,-0 -49.471,-126.16 -59.903,-152.761c-1.191,-3.039 -0.727,-6.478 1.228,-9.091c7.883,-10.537 28.555,-38.172 38.4,-51.332c3.005,-4.017 8.629,-4.978 12.797,-2.187c17.182,11.506 59.537,39.87 77.526,51.917c5.021,3.362 11.573,3.362 16.593,0c21.531,-14.418 77.526,-51.917 77.526,-51.917c4.169,-2.791 9.793,-1.83 12.798,2.187c9.845,13.16 30.517,40.795 38.399,51.332c1.956,2.613 2.42,6.052 1.229,9.091c-10.432,26.601 -59.904,152.761 -59.904,152.761c0,-0 17.446,-106.765 21.043,-128.78c0.412,-2.519 -0.216,-5.098 -1.739,-7.147c-4.106,-5.524 -12.667,-17.039 -18.798,-25.286c-1.703,-2.29 -4.351,-3.686 -7.203,-3.796c-2.852,-0.111 -5.601,1.077 -7.475,3.229c-18.539,21.286 -64.172,73.678 -64.172,73.678l-64.172,-73.678Z" style="fill:#f391ef;"/></g><path d="M219.501,200.726c1.808,1.295 4.186,1.479 6.172,0.478c1.986,-1.001 3.252,-3.022 3.286,-5.246c0.255,-16.418 0.719,-46.437 0.961,-62.056c0.033,-2.108 -1.047,-4.077 -2.841,-5.182c-1.794,-1.106 -4.038,-1.186 -5.906,-0.209c-13.163,6.879 -37.657,19.681 -50.652,26.472c-1.84,0.962 -3.05,2.81 -3.195,4.881c-0.145,2.072 0.795,4.07 2.484,5.279c12.422,8.895 36.463,26.111 49.691,35.583Z" style="fill:#c664ba;"/><path d="M260.284,200.726c-1.808,1.295 -4.186,1.479 -6.172,0.478c-1.986,-1.001 -3.253,-3.022 -3.287,-5.246c-0.254,-16.418 -0.719,-46.437 -0.961,-62.056c-0.032,-2.108 1.047,-4.077 2.841,-5.182c1.795,-1.106 4.039,-1.186 5.907,-0.209c13.163,6.879 37.657,19.681 50.651,26.472c1.841,0.962 3.05,2.81 3.195,4.881c0.145,2.072 -0.795,4.07 -2.483,5.279c-12.422,8.895 -36.464,26.111 -49.691,35.583Z" style="fill:#c664ba;"/><path d="M331.884,149.029c1.406,0.736 2.629,1.778 3.578,3.05c3.301,4.429 11.65,15.63 18.438,24.738c2.159,2.896 5.646,4.489 9.248,4.224c3.602,-0.264 6.82,-2.35 8.532,-5.53c2.979,-5.533 6.111,-11.349 8.026,-14.904c1.185,-2.202 1.552,-4.753 1.034,-7.199c-1.731,-8.178 -5.848,-27.633 -8.182,-38.659c-0.995,-4.703 -5.039,-8.142 -9.841,-8.369c-11.228,-0.531 -31.005,-1.466 -39.32,-1.859c-2.489,-0.118 -4.939,0.648 -6.919,2.161c-3.206,2.452 -8.461,6.469 -13.459,10.291c-2.869,2.193 -4.42,5.7 -4.111,9.299c0.308,3.598 2.433,6.79 5.634,8.463c10.066,5.263 22.447,11.735 27.342,14.294Z" style="fill:#b46cc0;"/><path d="M148.116,149.029c-1.406,0.736 -2.629,1.778 -3.578,3.05c-3.301,4.429 -11.65,15.63 -18.438,24.738c-2.159,2.896 -5.646,4.489 -9.248,4.224c-3.602,-0.264 -6.82,-2.35 -8.532,-5.53c-2.979,-5.533 -6.111,-11.349 -8.026,-14.904c-1.185,-2.202 -1.552,-4.753 -1.034,-7.199c1.731,-8.178 5.848,-27.633 8.182,-38.659c0.995,-4.703 5.039,-8.142 9.841,-8.369c11.228,-0.531 31.005,-1.466 39.32,-1.859c2.489,-0.118 4.939,0.648 6.919,2.161c3.206,2.452 8.461,6.469 13.459,10.291c2.869,2.193 4.42,5.7 4.111,9.299c-0.308,3.598 -2.433,6.79 -5.634,8.463c-10.066,5.263 -22.447,11.735 -27.342,14.294Z" style="fill:#b46cc0;"/></svg>