<?xml version="1.0" encoding="UTF-8" standalone="no"?><!DOCTYPE svg PUBLIC "-//W3C//DTD SVG 1.1//EN" "http://www.w3.org/Graphics/SVG/1.1/DTD/svg11.dtd"><svg width="100%" height="100%" viewBox="0 0 1024 1024" version="1.1" xmlns="http://www.w3.org/2000/svg" xmlns:xlink="http://www.w3.org/1999/xlink" xml:space="preserve" xmlns:serif="http://www.serif.com/" style="fill-rule:evenodd;clip-rule:evenodd;stroke-linejoin:round;stroke-miterlimit:2;"><path d="M747.695,466.758c1.875,1.875 2.929,4.419 2.929,7.071c-0,2.652 -1.054,5.196 -2.929,7.071c-15.326,15.326 -51.455,51.454 -66.78,66.78c-3.905,3.905 -10.237,3.905 -14.142,-0c-26.674,-26.674 -121.028,-121.028 -147.702,-147.702c-3.905,-3.905 -10.237,-3.905 -14.142,0c-26.674,26.674 -121.028,121.028 -147.702,147.702c-3.905,3.905 -10.237,3.905 -14.142,-0c-15.325,-15.326 -51.454,-51.454 -66.78,-66.78c-1.875,-1.875 -2.929,-4.419 -2.929,-7.071c0,-2.652 1.054,-5.196 2.929,-7.071c35.416,-35.415 193.209,-193.208 228.624,-228.624c1.875,-1.875 4.419,-2.929 7.071,-2.929c2.652,0 5.196,1.054 7.071,2.929c35.415,35.416 193.208,193.209 228.624,228.624Z" style="fill:#c8c8c8;"/><path d="M747.695,704.944c1.875,1.875 2.929,4.419 2.929,7.071c-0,2.652 -1.054,5.196 -2.929,7.071c-15.326,15.325 -51.455,51.454 -66.78,66.78c-3.905,3.905 -10.237,3.905 -14.142,-0c-26.674,-26.674 -121.028,-121.028 -147.702,-147.702c-3.905,-3.905 -10.237,-3.905 -14.142,-0c-26.674,26.674 -121.028,121.028 -147.702,147.702c-3.905,3.905 -10.237,3.905 -14.142,-0c-15.325,-15.326 -51.454,-51.455 -66.78,-66.78c-1.875,-1.875 -2.929,-4.419 -2.929,-7.071c0,-2.652 1.054,-5.196 2.929,-7.071c35.416,-35.415 193.209,-193.209 228.624,-228.624c1.875,-1.875 4.419,-2.929 7.071,-2.929c2.652,0 5.196,1.054 7.071,2.929c35.415,35.415 193.208,193.209 228.624,228.624Z" style="fill:#c8c8c8;fill-opacity:0.5;"/></svg>